<?xml version="1.0" standalone="no"?>
<!DOCTYPE svg PUBLIC "-//W3C//DTD SVG 20010904//EN"
 "http://www.w3.org/TR/2001/REC-SVG-20010904/DTD/svg10.dtd">
<svg version="1.0" xmlns="http://www.w3.org/2000/svg"
 width="260.000000pt" height="260.000000pt" viewBox="0 0 260.000000 260.000000"
 preserveAspectRatio="xMidYMid meet">
<metadata>
Created by potrace 1.11, written by Peter Selinger 2001-2013
</metadata>
<g transform="translate(0.000000,260.000000) scale(0.100000,-0.100000)"
fill="#000000" stroke="none">
<path d="M330 1308 c-129 -193 -236 -355 -238 -360 -2 -4 213 -8 477 -8 l481
0 0 60 c0 41 4 60 13 60 6 0 34 -27 60 -60 39 -49 53 -60 77 -60 17 0 30 2 30
5 0 3 -24 38 -54 77 l-54 72 49 60 c27 33 49 63 49 67 0 3 -15 3 -34 0 -25 -5
-44 -19 -75 -58 -23 -29 -46 -53 -51 -53 -6 0 -10 25 -10 55 0 54 0 55 -30 55
l-30 0 0 -87 0 -87 -48 70 -48 69 68 48 c37 27 68 51 68 54 0 9 -223 333 -230
333 -3 0 -35 -20 -70 -44 l-64 -45 -43 65 c-24 35 -47 64 -51 64 -4 0 -113
-158 -242 -352z m359 167 l112 -165 -75 0 c-56 0 -75 3 -73 13 1 6 6 15 11 18
13 10 -2 29 -18 23 -8 -3 -17 0 -22 7 -5 9 1 11 24 6 24 -5 32 -3 32 8 0 10
-11 16 -32 16 -31 2 -31 2 -5 6 15 2 27 11 27 19 0 17 -1 17 -34 4 -14 -5 -26
-7 -26 -5 0 3 12 10 27 16 17 6 23 13 16 20 -11 11 -43 2 -43 -12 0 -17 -18
-9 -23 11 -3 11 -10 20 -17 20 -7 0 -14 -9 -17 -20 -5 -20 -23 -28 -23 -11 0
14 -32 23 -43 12 -7 -7 -1 -14 16 -20 15 -6 27 -13 27 -16 0 -2 -12 0 -26 5
-33 13 -34 13 -34 -4 0 -8 12 -17 28 -19 24 -4 24 -4 -7 -6 -31 -1 -33 -3 -26
-28 3 -15 10 -30 13 -33 4 -3 8 -11 9 -17 2 -10 -17 -13 -68 -13 l-71 0 19 29
c83 130 199 301 204 301 3 0 56 -74 118 -165z m136 78 c26 -39 35 -72 10 -39
-14 18 -16 18 -62 -12 -26 -17 -51 -28 -56 -25 -5 3 15 21 43 40 38 25 49 38
41 46 -11 11 -15 27 -6 27 2 0 16 -17 30 -37z m55 -79 c0 -3 -10 -14 -22 -24
-21 -17 -21 -18 -5 -44 20 -30 29 -32 47 -11 14 16 30 20 30 6 0 -13 -102 -81
-113 -74 -5 3 2 13 17 22 31 19 32 22 7 52 -17 21 -22 22 -40 12 -24 -15 -31
-16 -31 -4 0 5 21 23 48 40 46 30 62 37 62 25z m-367 -105 c-8 -8 -16 -8 -30
0 -16 9 -14 10 12 11 21 0 26 -3 18 -11z m11 -24 c-4 -8 -11 -15 -16 -15 -6 0
-5 6 2 15 7 8 14 15 16 15 2 0 1 -7 -2 -15z m116 -7 c0 -6 -6 -5 -15 2 -8 7
-15 14 -15 16 0 2 7 1 15 -2 8 -4 15 -11 15 -16z m351 -30 c13 -25 1 -23 -19
3 -11 13 -23 18 -35 14 -19 -8 -22 -21 -7 -30 6 -3 10 -11 10 -17 0 -6 -9 -3
-20 7 -16 14 -22 15 -35 5 -13 -11 -13 -15 0 -33 20 -28 19 -48 -1 -22 -38 49
-37 52 18 90 57 38 59 38 89 -17z m-441 17 c0 -8 -7 -15 -15 -15 -9 0 -12 6
-9 15 4 8 10 15 15 15 5 0 9 -7 9 -15z m64 0 c3 -9 0 -15 -9 -15 -8 0 -15 7
-15 15 0 8 4 15 9 15 5 0 11 -7 15 -15z m75 -192 c-62 -93 -113 -170 -115
-171 -3 -4 -224 324 -224 333 0 3 101 5 225 5 l225 0 -111 -167z m-135 -170
c5 -10 -11 -13 -70 -13 l-76 0 6 33 c3 17 9 56 12 85 l7 52 -48 0 c-41 0 -46
2 -35 15 11 13 8 15 -19 15 -20 0 -31 -5 -31 -14 0 -9 -12 -16 -32 -18 -29 -3
-33 -7 -36 -36 -2 -18 1 -39 6 -45 15 -19 22 -61 13 -75 -5 -9 -28 -12 -74
-10 l-65 3 110 167 111 167 106 -157 c59 -86 110 -163 115 -169z m436 21 c0
-34 0 -34 -45 -34 l-45 0 0 60 c0 48 -3 60 -16 60 -14 0 -14 1 0 16 20 19 5
54 -24 54 -27 0 -44 -34 -27 -52 25 -25 8 -34 -51 -30 -54 4 -59 2 -69 -21 -9
-20 -9 -28 2 -37 11 -9 10 -15 -6 -31 -14 -14 -33 -19 -69 -19 -27 0 -50 2
-50 5 0 3 50 80 111 171 l111 166 89 -137 c68 -104 89 -144 89 -171z m-583 70
c-3 -3 -12 -4 -19 -1 -8 3 -5 6 6 6 11 1 17 -2 13 -5z m381 -21 c-10 -2 -28
-2 -40 0 -13 2 -5 4 17 4 22 1 32 -1 23 -4z m-485 -17 c6 -16 -16 -40 -26 -29
-4 3 -7 15 -7 25 0 21 25 24 33 4z m37 5 c0 -5 3 -23 6 -40 6 -27 4 -31 -16
-31 -19 0 -21 4 -16 28 4 15 7 33 8 40 1 13 18 17 18 3z m60 -3 c0 -7 -5 -20
-10 -28 -12 -19 -35 2 -27 24 7 19 37 21 37 4z m440 -44 c0 -15 -6 -24 -15
-24 -8 0 -15 7 -15 15 0 8 -7 15 -15 15 -12 0 -12 3 2 20 21 24 43 10 43 -26z
m-540 -14 c0 -5 -7 -10 -15 -10 -8 0 -15 5 -15 10 0 6 7 10 15 10 8 0 15 -4
15 -10z m90 0 c0 -5 -4 -10 -10 -10 -5 0 -10 5 -10 10 0 6 5 10 10 10 6 0 10
-4 10 -10z"/>
<path d="M1570 1186 l0 -45 -35 6 c-29 5 -39 1 -65 -25 -25 -26 -30 -38 -30
-80 0 -64 27 -102 74 -102 17 0 38 6 44 12 10 10 15 10 21 -1 5 -7 17 -11 27
-9 17 3 19 15 22 146 l3 142 -31 0 c-29 0 -30 -2 -30 -44z m-2 -138 c2 -38 -1
-49 -17 -57 -39 -21 -58 2 -52 64 3 38 10 46 38 43 26 -3 28 -7 31 -50z"/>
<path d="M2054 1170 c-4 -16 -13 -30 -20 -30 -8 0 -14 -9 -14 -20 0 -11 7 -20
15 -20 12 0 15 -14 15 -68 0 -76 9 -92 55 -92 44 0 62 14 46 34 -8 9 -21 15
-30 14 -13 -2 -17 8 -19 55 -3 55 -2 57 23 57 18 0 25 5 25 20 0 15 -7 20 -25
20 -21 0 -25 5 -25 30 0 23 -4 30 -20 30 -15 0 -22 -9 -26 -30z"/>
<path d="M1268 1134 c-36 -19 -48 -43 -48 -94 0 -91 106 -135 171 -71 21 21
29 39 29 65 0 92 -76 142 -152 100z m86 -50 c3 -9 6 -31 6 -50 0 -27 -5 -37
-25 -46 -35 -16 -55 4 -55 57 0 23 3 45 7 48 13 13 61 7 67 -9z"/>
<path d="M1692 1125 c-37 -31 -48 -73 -32 -120 15 -45 44 -65 96 -65 52 0 95
29 71 48 -11 9 -22 10 -41 2 -36 -13 -42 -13 -60 6 -27 26 -18 33 47 36 59 3
62 4 65 31 2 20 -5 35 -27 57 -37 38 -78 39 -119 5z m92 -40 c4 -12 -3 -15
-34 -15 -31 0 -38 3 -34 15 4 8 18 15 34 15 16 0 30 -7 34 -15z"/>
<path d="M1886 1129 c-26 -20 -33 -52 -18 -76 4 -7 24 -19 45 -28 21 -8 37
-22 37 -31 0 -14 -8 -15 -44 -10 -34 5 -45 4 -49 -8 -9 -22 26 -38 75 -34 31
2 46 10 61 29 27 38 15 67 -39 90 -56 25 -57 42 -2 37 34 -2 43 0 46 14 2 12
-6 21 -23 28 -39 15 -59 12 -89 -11z"/>
<path d="M2202 1125 c-36 -31 -48 -73 -32 -119 14 -43 48 -66 99 -66 49 0 91
29 68 48 -11 9 -22 10 -41 2 -36 -13 -42 -13 -60 6 -27 26 -18 33 47 36 59 3
62 4 65 31 2 20 -5 35 -27 57 -37 38 -78 39 -119 5z m92 -40 c4 -12 -3 -15
-34 -15 -31 0 -38 3 -34 15 4 8 18 15 34 15 16 0 30 -7 34 -15z"/>
<path d="M2387 1144 c-4 -4 -7 -52 -7 -106 0 -98 0 -98 25 -98 24 0 25 3 25
59 0 78 6 91 41 91 26 0 29 3 29 31 0 29 -2 31 -27 25 -38 -9 -46 -9 -64 -2
-8 4 -18 3 -22 0z"/>
</g>
</svg>
